HIERARCHY
ROOT Hips
{
    OFFSET 0.000000 0.000000 0.000000
    CHANNELS 6 Xposition Yposition Zposition Zrotation Yrotation Xrotation
    JOINT Chest
    {
        OFFSET 0.000000 1.634758 -0.000000
        CHANNELS 3 Zrotation Yrotation Xrotation
        JOINT Chest2
        {
            OFFSET 0.000000 2.197341 0.000000
            CHANNELS 3 Zrotation Yrotation Xrotation
            JOINT Neck
            {
                OFFSET 0.000000 0.961544 0.000000
                CHANNELS 3 Zrotation Yrotation Xrotation
                JOINT Head
                {
                    OFFSET 0.000000 0.632542 -0.032565
                    CHANNELS 3 Zrotation Yrotation Xrotation
                    End Site
                    {
                        OFFSET -0.000001 0.439502 2.922845
                    }
                }
            }
            JOINT LeftCollar
            {
                OFFSET 0.167536 0.778237 -0.168280
                CHANNELS 3 Zrotation Yrotation Xrotation
                JOINT LeftShoulder
                {
                    OFFSET 0.831514 -0.002900 0.006458
                    CHANNELS 3 Zrotation Yrotation Xrotation
                    JOINT LeftElbow
                    {
                        OFFSET 2.272872 -0.026639 0.059314
                        CHANNELS 3 Zrotation Yrotation Xrotation
                        JOINT LeftWrist
                        {
                            OFFSET 2.081982 -0.024402 0.054333
                            CHANNELS 3 Zrotation Yrotation Xrotation
                            JOINT LeftHandThumb1
                            {
                                OFFSET 0.218903 -0.128645 0.283837
                                CHANNELS 3 Zrotation Yrotation Xrotation
                                JOINT LeftHandThumb2
                                {
                                    OFFSET 0.137157 -0.025101 0.077902
                                    CHANNELS 3 Zrotation Yrotation Xrotation
                                    JOINT LeftHandThumb3
                                    {
                                        OFFSET 0.155401 -0.093404 0.025799
                                        CHANNELS 3 Zrotation Yrotation Xrotation
                                        End Site
                                        {
                                            OFFSET 0.249748 -0.090007 0.036895
                                        }
                                    }
                                }
                            }
                            JOINT LeftHandFore1
                            {
                                OFFSET 0.767340 -0.016076 0.196678
                                CHANNELS 3 Zrotation Yrotation Xrotation
                                JOINT LeftHandFore2
                                {
                                    OFFSET 0.209399 -0.053353 0.017341
                                    CHANNELS 3 Zrotation Yrotation Xrotation
                                    JOINT LeftHandFore3
                                    {
                                        OFFSET 0.112814 -0.062491 0.011433
                                        CHANNELS 3 Zrotation Yrotation Xrotation
                                        End Site
                                        {
                                            OFFSET 0.141700 -0.130710 0.014251
                                        }
                                    }
                                }
                            }
                            JOINT LeftHandMiddle1
                            {
                                OFFSET 0.709887 -0.008320 0.018526
                                CHANNELS 3 Zrotation Yrotation Xrotation
                                JOINT LeftHandMiddle2
                                {
                                    OFFSET 0.234003 -0.070939 0.016552
                                    CHANNELS 3 Zrotation Yrotation Xrotation
                                    JOINT LeftHandMiddle3
                                    {
                                        OFFSET 0.117699 -0.086125 0.010613
                                        CHANNELS 3 Zrotation Yrotation Xrotation
                                        End Site
                                        {
                                            OFFSET 0.132888 -0.194118 0.017001
                                        }
                                    }
                                }
                            }
                            JOINT LeftHandRing1
                            {
                                OFFSET 0.743817 -0.005823 -0.153668
                                CHANNELS 3 Zrotation Yrotation Xrotation
                                JOINT LeftHandRing2
                                {
                                    OFFSET 0.336057 -0.108615 0.001341
                                    CHANNELS 3 Zrotation Yrotation Xrotation
                                    JOINT LeftHandRing3
                                    {
                                        OFFSET 0.089074 -0.103022 0.007610
                                        CHANNELS 3 Zrotation Yrotation Xrotation
                                        End Site
                                        {
                                            OFFSET 0.049871 -0.109052 0.006342
                                        }
                                    }
                                }
                            }
                            JOINT LeftHandLittle1
                            {
                                OFFSET 0.689408 -0.053302 -0.308304
                                CHANNELS 3 Zrotation Yrotation Xrotation
                                JOINT LeftHandLittle2
                                {
                                    OFFSET 0.193659 -0.023239 -0.003174
                                    CHANNELS 3 Zrotation Yrotation Xrotation
                                    JOINT LeftHandLittle3
                                    {
                                        OFFSET 0.097116 -0.070941 0.005664
                                        CHANNELS 3 Zrotation Yrotation Xrotation
                                        End Site
                                        {
                                            OFFSET 0.065846 -0.175011 0.036388
                                        }
                                    }
                                }
                            }
                        }
                    }
                }
            }
            JOINT RightCollar
            {
                OFFSET -0.167536 0.778237 -0.168280
                CHANNELS 3 Zrotation Yrotation Xrotation
                JOINT RightShoulder
                {
                    OFFSET -0.831514 -0.002900 0.006457
                    CHANNELS 3 Zrotation Yrotation Xrotation
                    JOINT RightElbow
                    {
                        OFFSET -2.272872 -0.026639 0.059313
                        CHANNELS 3 Zrotation Yrotation Xrotation
                        JOINT RightWrist
                        {
                            OFFSET -2.081982 -0.024402 0.054331
                            CHANNELS 3 Zrotation Yrotation Xrotation
                            JOINT RightHandThumb1
                            {
                                OFFSET -0.218911 -0.128571 0.283837
                                CHANNELS 3 Zrotation Yrotation Xrotation
                                JOINT RightHandThumb2
                                {
                                    OFFSET -0.137157 -0.025101 0.077902
                                    CHANNELS 3 Zrotation Yrotation Xrotation
                                    JOINT RightHandThumb3
                                    {
                                        OFFSET -0.170785 -0.066053 0.002963
                                        CHANNELS 3 Zrotation Yrotation Xrotation
                                        End Site
                                        {
                                            OFFSET -0.235727 -0.117612 0.049362
                                        }
                                    }
                                }
                            }
                            JOINT RightHandFore1
                            {
                                OFFSET -0.767344 -0.015991 0.196679
                                CHANNELS 3 Zrotation Yrotation Xrotation
                                JOINT RightHandFore2
                                {
                                    OFFSET -0.209415 -0.053305 0.017344
                                    CHANNELS 3 Zrotation Yrotation Xrotation
                                    JOINT RightHandFore3
                                    {
                                        OFFSET -0.113047 -0.062519 0.008600
                                        CHANNELS 3 Zrotation Yrotation Xrotation
                                        End Site
                                        {
                                            OFFSET -0.141808 -0.130723 0.012995
                                        }
                                    }
                                }
                            }
                            JOINT RightHandMiddle1
                            {
                                OFFSET -0.709887 -0.008302 0.018525
                                CHANNELS 3 Zrotation Yrotation Xrotation
                                JOINT RightHandMiddle2
                                {
                                    OFFSET -0.233992 -0.070960 0.016563
                                    CHANNELS 3 Zrotation Yrotation Xrotation
                                    JOINT RightHandMiddle3
                                    {
                                        OFFSET -0.117945 -0.086170 0.006927
                                        CHANNELS 3 Zrotation Yrotation Xrotation
                                        End Site
                                        {
                                            OFFSET -0.133739 -0.194225 0.004547
                                        }
                                    }
                                }
                            }
                            JOINT RightHandRing1
                            {
                                OFFSET -0.743819 -0.005785 -0.153669
                                CHANNELS 3 Zrotation Yrotation Xrotation
                                JOINT RightHandRing2
                                {
                                    OFFSET -0.336063 -0.108594 0.001425
                                    CHANNELS 3 Zrotation Yrotation Xrotation
                                    JOINT RightHandRing3
                                    {
                                        OFFSET -0.089692 -0.101371 -0.016863
                                        CHANNELS 3 Zrotation Yrotation Xrotation
                                        End Site
                                        {
                                            OFFSET -0.050499 -0.107372 -0.018473
                                        }
                                    }
                                }
                            }
                            JOINT RightHandLittle1
                            {
                                OFFSET -0.689403 -0.053298 -0.308303
                                CHANNELS 3 Zrotation Yrotation Xrotation
                                JOINT RightHandLittle2
                                {
                                    OFFSET -0.193662 -0.023241 -0.003188
                                    CHANNELS 3 Zrotation Yrotation Xrotation
                                    JOINT RightHandLittle3
                                    {
                                        OFFSET -0.096879 -0.070403 -0.012385
                                        CHANNELS 3 Zrotation Yrotation Xrotation
                                        End Site
                                        {
                                            OFFSET -0.064715 -0.172484 -0.048475
                                        }
                                    }
                                }
                            }
                        }
                    }
                }
            }
        }
    }
    JOINT LeftHip
    {
        OFFSET 0.685143 0.673822 -0.044491
        CHANNELS 3 Zrotation Yrotation Xrotation
        JOINT LeftKnee
        {
            OFFSET 0.085364 -3.750208 0.017676
            CHANNELS 3 Zrotation Yrotation Xrotation
            JOINT LeftAnkle
            {
                OFFSET 0.094583 -4.155206 0.019585
                CHANNELS 3 Zrotation Yrotation Xrotation
                JOINT LeftToe
                {
                    OFFSET -0.000000 -0.395925 0.621478
                    CHANNELS 3 Zrotation Yrotation Xrotation
                    End Site
                    {
                        OFFSET -0.000000 -0.077878 0.321152
                    }
                }
            }
        }
    }
    JOINT RightHip
    {
        OFFSET -0.685143 0.673822 -0.044492
        CHANNELS 3 Zrotation Yrotation Xrotation
        JOINT RightKnee
        {
            OFFSET -0.085364 -3.750208 0.017677
            CHANNELS 3 Zrotation Yrotation Xrotation
            JOINT RightAnkle
            {
                OFFSET -0.094583 -4.155206 0.019585
                CHANNELS 3 Zrotation Yrotation Xrotation
                JOINT RightToe
                {
                    OFFSET -0.000000 -0.395925 0.621478
                    CHANNELS 3 Zrotation Yrotation Xrotation
                    End Site
                    {
                        OFFSET -0.000000 -0.077878 0.321152
                    }
                }
            }
        }
    }
}
MOTION
Frames: 4
Frame Time: 0.033333
-0.111663 8.237779 -0.491578 180.000000 -0.000011 180.000000 2.780970 0.202699 1.668625 1.014198 -0.099417 -3.780958 -4.499229 3.256183 -5.869517 -0.310931 6.017187 -8.905548 -12.314092 -8.320215 -0.065610 -57.049931 -29.484558 11.319265 0.000003 -0.000005 0.000000 27.252291 -19.524765 23.814846 -0.000005 -0.000003 -0.000009 -36.138718 2.993189 -12.211674 -3.448930 -5.540904 14.886652 -76.740707 3.904643 1.787271 -103.021118 -1.727974 3.805542 -58.284191 -1.771142 2.880521 -69.455856 0.138097 4.400953 -91.167923 0.581746 5.387540 -60.794708 -0.592550 3.697423 -70.048950 -5.193690 5.462949 -80.439735 -2.192148 2.520793 -60.620689 -2.733102 3.875144 -73.452789 -4.771038 10.863842 -82.754700 -8.894731 15.299066 -63.420521 -10.080292 4.730144 13.795658 8.201078 0.011763 70.384567 14.890724 18.730566 -0.110582 31.109457 -0.404576 -0.754377 15.943066 19.468853 0.000002 0.000002 -0.000006 -23.614365 -17.738695 33.847317 1.171751 -11.963675 -14.334344 90.102974 -4.443315 2.385690 118.557686 -12.584255 6.797804 66.610420 -5.116482 6.193285 81.763435 -0.684034 5.015068 106.265945 -7.621385 2.865555 70.914658 -4.650042 3.777170 82.736427 4.526169 6.183467 95.406120 -13.132561 -8.744694 69.912010 -12.022663 -6.979595 85.979118 3.797257 11.375358 98.239037 -9.544900 -24.020416 76.374321 -13.364494 -10.850327 -0.011347 14.641414 -4.590713 0.043904 0.335519 14.907804 -16.635254 -4.231974 -9.606074 -0.147383 -3.525856 -11.235769 -0.364272 -8.702089 -4.762300 -0.046807 -0.346288 15.397873 8.912445 2.545686 -14.118013 0.127387 1.089775 -6.962968
-0.111258 8.237779 -0.491578 180.000000 -0.000011 180.000000 2.746783 0.169236 1.176345 0.817417 -0.088075 -3.291439 -2.179287 1.583485 -5.704701 -0.145861 2.830811 -8.691836 -12.952256 -8.163475 -0.059676 -60.476250 -24.634264 12.419885 0.007690 -8.946364 -0.105653 23.337036 -19.525497 20.448784 0.000010 0.000009 0.000004 -35.447659 2.838758 -12.119103 -3.341436 -5.342262 14.571246 -74.922844 3.809319 1.813175 -100.565125 -1.777871 3.702593 -56.839149 -1.766043 2.793155 -67.727272 0.070369 4.306266 -88.851494 0.463182 5.290086 -59.226315 -0.627959 3.602684 -68.291634 -5.179473 5.259495 -78.218742 -2.188836 2.420622 -59.084320 -2.720735 3.749946 -71.756287 -4.834153 10.570093 -80.632195 -8.981208 14.814503 -61.470795 -9.881627 4.432962 14.079308 6.598862 0.010354 64.988213 10.013626 12.094963 -0.080403 27.019678 -0.341958 -2.090510 15.720256 13.796558 0.000000 -0.000005 -0.000005 -23.186964 -17.275677 33.176289 1.132935 -11.687011 -13.974584 87.881386 -4.317219 2.420523 115.579590 -12.213893 7.012192 64.931488 -4.912562 6.126838 79.692749 -0.580947 4.920868 103.515961 -7.413693 2.992250 69.082993 -4.485830 3.763978 80.620667 4.554154 5.975043 92.772736 -13.049852 -8.264025 68.074539 -11.857354 -6.631580 83.869072 3.931553 11.081053 95.686943 -9.877764 -23.340624 74.147499 -13.239266 -10.330277 -0.107104 12.788837 -4.577215 0.043957 0.335719 14.916891 -14.193937 -3.697777 -10.842131 -0.158438 -2.759400 -10.343522 -0.214281 -5.999168 -4.721944 -0.046828 -0.346366 15.401465 10.130804 -0.424857 -14.496354 0.138845 1.225763 -7.167688
-0.110836 8.237779 -0.491578 180.000000 -0.000011 180.000000 2.681962 0.152777 0.262530 0.692655 -0.080447 -2.966353 0.416004 -0.042751 -5.403775 0.015993 -0.310721 -8.167003 -13.565673 -7.043927 -0.052548 -60.083885 -24.076571 9.985864 -0.000003 -0.000002 0.000000 25.268696 -18.992018 29.597652 -0.000011 -0.000003 0.000001 -34.518593 2.641288 -11.973654 -3.197753 -5.042651 14.178567 -72.556770 3.688286 1.842670 -97.366531 -1.836163 3.565450 -54.943722 -1.756021 2.678834 -65.457176 -0.014109 4.178885 -85.805168 0.313439 5.154772 -57.152618 -0.670762 3.476033 -65.989037 -5.156723 4.988557 -75.256264 -2.178382 2.287351 -57.066929 -2.699396 3.586068 -69.575912 -4.900828 10.187214 -77.850044 -9.067552 14.175279 -58.831673 -9.596614 4.041698 13.605618 4.285991 0.012818 56.707127 2.204197 6.267365 -0.072529 25.793192 -0.324084 -5.343562 15.416205 4.316968 0.000005 0.000005 -0.000006 -22.547142 -16.641359 32.164597 1.170247 -11.326195 -13.457272 84.786797 -4.148106 2.464367 111.432335 -11.679876 7.277469 62.555756 -4.627460 6.022609 76.763298 -0.441267 4.781392 99.614525 -7.108981 3.154575 66.458412 -4.251396 3.735899 77.639145 4.590201 5.666343 88.943542 -12.891277 -7.572983 65.473579 -11.604500 -6.148292 80.989807 4.093076 10.660423 92.083588 -10.295023 -22.358431 70.814354 -13.014983 -9.561565 -0.322314 8.713419 -4.530670 0.044010 0.335917 14.925826 -8.733307 -2.263046 -12.995270 -0.124389 -1.435484 -8.677961 -0.156699 -5.003356 -4.706603 -0.046851 -0.346448 15.405152 11.137006 -1.723202 -14.604830 0.149985 1.369213 -7.378685
-0.110397 8.237779 -0.491578 180.000000 -0.000011 180.000000 2.505024 0.225906 -0.973810 0.902859 -0.112865 -2.782454 3.158350 -1.934026 -5.167759 0.210219 -4.076439 -7.706451 -13.665783 -5.298866 -0.056218 -55.232235 -17.819277 6.063984 0.000000 0.000003 0.000000 29.050329 -17.838753 24.205894 0.000003 0.000005 -0.000009 -33.331490 2.396208 -11.770022 -3.016355 -4.628940 13.706504 -69.604797 3.539807 1.872905 -93.373589 -1.898047 3.390101 -52.564686 -1.738107 2.535876 -62.605255 -0.112882 4.014344 -81.974060 0.135697 4.973681 -54.534203 -0.718228 3.314010 -63.101536 -5.117756 4.645466 -71.491264 -2.155167 2.119038 -54.532768 -2.664478 3.381483 -66.881805 -4.961411 9.708385 -74.359695 -9.132362 13.368848 -55.444508 -9.204645 3.559356 12.112704 1.997795 0.026428 46.548649 -4.951629 3.029521 -0.062480 24.098717 -0.299981 -9.127645 11.761544 -3.759056 0.000006 0.000003 0.000005 -21.685856 -15.821871 30.788099 1.309871 -10.884857 -12.771673 80.783493 -3.934628 2.511163 106.074074 -10.962507 7.560711 59.446163 -4.261175 5.868495 72.928871 -0.269723 4.588474 94.500076 -6.693800 3.335014 62.991577 -3.944060 3.682406 73.747910 4.622022 5.248051 83.836823 -12.610071 -6.670596 62.071442 -11.241046 -5.534101 77.322578 4.263384 10.102493 87.367783 -10.746197 -21.039133 66.282143 -12.640071 -8.539186 -0.539259 4.638230 -4.468896 0.044062 0.336110 14.934710 -3.193309 -0.570452 -14.285025 -0.053214 -0.500740 -7.564979 -0.251528 -6.797080 -4.738913 -0.046872 -0.346526 15.408743 11.287078 -0.136057 -14.182101 0.154970 1.434637 -7.464801
